<mxfile host="app.diagrams.net" agent="Mozilla/5.0 (Windows NT 10.0; Win64; x64) AppleWebKit/537.36 (KHTML, like Gecko) Chrome/128.0.0.0 Safari/537.36" version="24.7.7">
  <diagram name="Page-1" id="2YBvvXClWsGukQMizWep">
    <mxGraphModel dx="1776" dy="493" grid="1" gridSize="10" guides="1" tooltips="1" connect="1" arrows="1" fold="1" page="1" pageScale="1" pageWidth="850" pageHeight="1100" math="0" shadow="0">
      <root>
        <mxCell id="0" />
        <mxCell id="1" parent="0" />
        <mxCell id="kGxYXM4BxDVR542GWKJj-3" value="User" style="swimlane;childLayout=stackLayout;horizontal=1;startSize=50;horizontalStack=0;rounded=1;fontSize=14;fontStyle=0;strokeWidth=2;resizeParent=0;resizeLast=1;shadow=0;dashed=0;align=center;arcSize=4;whiteSpace=wrap;html=1;" vertex="1" parent="1">
          <mxGeometry x="120" y="90" width="160" height="160" as="geometry" />
        </mxCell>
        <mxCell id="kGxYXM4BxDVR542GWKJj-4" value="&lt;div&gt;String name&lt;/div&gt;&lt;div&gt;String email&lt;/div&gt;&lt;div&gt;String password&lt;/div&gt;&lt;div&gt;Long phone&lt;/div&gt;&lt;div&gt;User workFor&lt;/div&gt;&lt;div&gt;&lt;span style=&quot;background-color: initial;&quot;&gt;Address address&lt;/span&gt;&lt;/div&gt;&lt;div&gt;&lt;span style=&quot;background-color: initial;&quot;&gt;Type type&lt;/span&gt;&lt;br&gt;&lt;/div&gt;&lt;div&gt;&lt;br&gt;&lt;/div&gt;" style="align=left;strokeColor=none;fillColor=none;spacingLeft=4;fontSize=12;verticalAlign=top;resizable=0;rotatable=0;part=1;html=1;" vertex="1" parent="kGxYXM4BxDVR542GWKJj-3">
          <mxGeometry y="50" width="160" height="110" as="geometry" />
        </mxCell>
        <mxCell id="kGxYXM4BxDVR542GWKJj-6" value="Ord&lt;span style=&quot;background-color: initial;&quot;&gt;er&lt;/span&gt;" style="swimlane;childLayout=stackLayout;horizontal=1;startSize=50;horizontalStack=0;rounded=1;fontSize=14;fontStyle=0;strokeWidth=2;resizeParent=0;resizeLast=1;shadow=0;dashed=0;align=center;arcSize=4;whiteSpace=wrap;html=1;" vertex="1" parent="1">
          <mxGeometry x="120" y="440" width="160" height="130" as="geometry" />
        </mxCell>
        <mxCell id="kGxYXM4BxDVR542GWKJj-7" value="User client&lt;div&gt;List&amp;lt;Pizza&amp;gt; pizzas&lt;/div&gt;&lt;div&gt;List&amp;lt;Drink&amp;gt; drinks&lt;/div&gt;&lt;div&gt;Double ETA (Estimated Time of Arrival)&lt;br&gt;Double freight&lt;/div&gt;" style="align=left;strokeColor=none;fillColor=none;spacingLeft=4;fontSize=12;verticalAlign=top;resizable=0;rotatable=0;part=1;html=1;" vertex="1" parent="kGxYXM4BxDVR542GWKJj-6">
          <mxGeometry y="50" width="160" height="80" as="geometry" />
        </mxCell>
        <mxCell id="kGxYXM4BxDVR542GWKJj-8" value="Flavor" style="swimlane;childLayout=stackLayout;horizontal=1;startSize=50;horizontalStack=0;rounded=1;fontSize=14;fontStyle=0;strokeWidth=2;resizeParent=0;resizeLast=1;shadow=0;dashed=0;align=center;arcSize=4;whiteSpace=wrap;html=1;" vertex="1" parent="1">
          <mxGeometry x="-110" y="100" width="160" height="120" as="geometry" />
        </mxCell>
        <mxCell id="kGxYXM4BxDVR542GWKJj-9" value="+Attribute1&#xa;+Attribute2&#xa;+Attribute3" style="align=left;strokeColor=none;fillColor=none;spacingLeft=4;fontSize=12;verticalAlign=top;resizable=0;rotatable=0;part=1;html=1;" vertex="1" parent="kGxYXM4BxDVR542GWKJj-8">
          <mxGeometry y="50" width="160" height="70" as="geometry" />
        </mxCell>
        <mxCell id="kGxYXM4BxDVR542GWKJj-10" value="Promotion" style="swimlane;childLayout=stackLayout;horizontal=1;startSize=50;horizontalStack=0;rounded=1;fontSize=14;fontStyle=0;strokeWidth=2;resizeParent=0;resizeLast=1;shadow=0;dashed=0;align=center;arcSize=4;whiteSpace=wrap;html=1;" vertex="1" parent="1">
          <mxGeometry x="-110" y="240" width="160" height="120" as="geometry" />
        </mxCell>
        <mxCell id="kGxYXM4BxDVR542GWKJj-11" value="+Attribute1&#xa;+Attribute2&#xa;+Attribute3" style="align=left;strokeColor=none;fillColor=none;spacingLeft=4;fontSize=12;verticalAlign=top;resizable=0;rotatable=0;part=1;html=1;" vertex="1" parent="kGxYXM4BxDVR542GWKJj-10">
          <mxGeometry y="50" width="160" height="70" as="geometry" />
        </mxCell>
        <mxCell id="kGxYXM4BxDVR542GWKJj-12" value="Attestation" style="swimlane;childLayout=stackLayout;horizontal=1;startSize=50;horizontalStack=0;rounded=1;fontSize=14;fontStyle=0;strokeWidth=2;resizeParent=0;resizeLast=1;shadow=0;dashed=0;align=center;arcSize=4;whiteSpace=wrap;html=1;" vertex="1" parent="1">
          <mxGeometry x="-110" y="660" width="160" height="120" as="geometry" />
        </mxCell>
        <mxCell id="kGxYXM4BxDVR542GWKJj-13" value="+Attribute1&#xa;+Attribute2&#xa;+Attribute3" style="align=left;strokeColor=none;fillColor=none;spacingLeft=4;fontSize=12;verticalAlign=top;resizable=0;rotatable=0;part=1;html=1;" vertex="1" parent="kGxYXM4BxDVR542GWKJj-12">
          <mxGeometry y="50" width="160" height="70" as="geometry" />
        </mxCell>
        <mxCell id="kGxYXM4BxDVR542GWKJj-14" value="Drink" style="swimlane;childLayout=stackLayout;horizontal=1;startSize=50;horizontalStack=0;rounded=1;fontSize=14;fontStyle=0;strokeWidth=2;resizeParent=0;resizeLast=1;shadow=0;dashed=0;align=center;arcSize=4;whiteSpace=wrap;html=1;" vertex="1" parent="1">
          <mxGeometry x="120" y="750" width="160" height="120" as="geometry" />
        </mxCell>
        <mxCell id="kGxYXM4BxDVR542GWKJj-15" value="String name&lt;div&gt;Double mililiters&lt;br&gt;&lt;div&gt;Double price sale&lt;br&gt;Double paid&lt;/div&gt;&lt;/div&gt;" style="align=left;strokeColor=none;fillColor=none;spacingLeft=4;fontSize=12;verticalAlign=top;resizable=0;rotatable=0;part=1;html=1;" vertex="1" parent="kGxYXM4BxDVR542GWKJj-14">
          <mxGeometry y="50" width="160" height="70" as="geometry" />
        </mxCell>
        <mxCell id="kGxYXM4BxDVR542GWKJj-16" value="Address" style="swimlane;childLayout=stackLayout;horizontal=1;startSize=50;horizontalStack=0;rounded=1;fontSize=14;fontStyle=0;strokeWidth=2;resizeParent=0;resizeLast=1;shadow=0;dashed=0;align=center;arcSize=4;whiteSpace=wrap;html=1;" vertex="1" parent="1">
          <mxGeometry x="120" y="590" width="160" height="140" as="geometry" />
        </mxCell>
        <mxCell id="kGxYXM4BxDVR542GWKJj-17" value="String CEP&lt;div&gt;Integer number&lt;/div&gt;&lt;div&gt;String street&lt;/div&gt;&lt;div&gt;String state&lt;/div&gt;&lt;div&gt;String neighborhood&lt;/div&gt;&lt;div&gt;&lt;br&gt;&lt;/div&gt;" style="align=left;strokeColor=none;fillColor=none;spacingLeft=4;fontSize=12;verticalAlign=top;resizable=0;rotatable=0;part=1;html=1;" vertex="1" parent="kGxYXM4BxDVR542GWKJj-16">
          <mxGeometry y="50" width="160" height="90" as="geometry" />
        </mxCell>
        <mxCell id="kGxYXM4BxDVR542GWKJj-18" value="Storage" style="swimlane;childLayout=stackLayout;horizontal=1;startSize=50;horizontalStack=0;rounded=1;fontSize=14;fontStyle=0;strokeWidth=2;resizeParent=0;resizeLast=1;shadow=0;dashed=0;align=center;arcSize=4;whiteSpace=wrap;html=1;" vertex="1" parent="1">
          <mxGeometry x="120" y="1030" width="160" height="120" as="geometry" />
        </mxCell>
        <mxCell id="kGxYXM4BxDVR542GWKJj-19" value="Double quantity&lt;div&gt;Ingredient ingredient / drink&lt;/div&gt;&lt;div&gt;Time lastUpdated&lt;/div&gt;&lt;div&gt;Time lastUpdatedBySystem&lt;br&gt;&lt;/div&gt;" style="align=left;strokeColor=none;fillColor=none;spacingLeft=4;fontSize=12;verticalAlign=top;resizable=0;rotatable=0;part=1;html=1;" vertex="1" parent="kGxYXM4BxDVR542GWKJj-18">
          <mxGeometry y="50" width="160" height="70" as="geometry" />
        </mxCell>
        <mxCell id="kGxYXM4BxDVR542GWKJj-20" value="Ingredient" style="swimlane;childLayout=stackLayout;horizontal=1;startSize=50;horizontalStack=0;rounded=1;fontSize=14;fontStyle=0;strokeWidth=2;resizeParent=0;resizeLast=1;shadow=0;dashed=0;align=center;arcSize=4;whiteSpace=wrap;html=1;" vertex="1" parent="1">
          <mxGeometry x="120" y="890" width="160" height="120" as="geometry" />
        </mxCell>
        <mxCell id="kGxYXM4BxDVR542GWKJj-21" value="String name&lt;div&gt;Double paid&lt;br&gt;&lt;/div&gt;" style="align=left;strokeColor=none;fillColor=none;spacingLeft=4;fontSize=12;verticalAlign=top;resizable=0;rotatable=0;part=1;html=1;" vertex="1" parent="kGxYXM4BxDVR542GWKJj-20">
          <mxGeometry y="50" width="160" height="70" as="geometry" />
        </mxCell>
        <mxCell id="kGxYXM4BxDVR542GWKJj-22" value="Saloon" style="swimlane;childLayout=stackLayout;horizontal=1;startSize=50;horizontalStack=0;rounded=1;fontSize=14;fontStyle=0;strokeWidth=2;resizeParent=0;resizeLast=1;shadow=0;dashed=0;align=center;arcSize=4;whiteSpace=wrap;html=1;" vertex="1" parent="1">
          <mxGeometry x="-110" y="380" width="160" height="120" as="geometry" />
        </mxCell>
        <mxCell id="kGxYXM4BxDVR542GWKJj-23" value="+Attribute1&#xa;+Attribute2&#xa;+Attribute3" style="align=left;strokeColor=none;fillColor=none;spacingLeft=4;fontSize=12;verticalAlign=top;resizable=0;rotatable=0;part=1;html=1;" vertex="1" parent="kGxYXM4BxDVR542GWKJj-22">
          <mxGeometry y="50" width="160" height="70" as="geometry" />
        </mxCell>
        <mxCell id="kGxYXM4BxDVR542GWKJj-24" value="Delivery" style="swimlane;childLayout=stackLayout;horizontal=1;startSize=50;horizontalStack=0;rounded=1;fontSize=14;fontStyle=0;strokeWidth=2;resizeParent=0;resizeLast=1;shadow=0;dashed=0;align=center;arcSize=4;whiteSpace=wrap;html=1;" vertex="1" parent="1">
          <mxGeometry x="-110" y="520" width="160" height="120" as="geometry" />
        </mxCell>
        <mxCell id="kGxYXM4BxDVR542GWKJj-25" value="+Attribute1&#xa;+Attribute2&#xa;+Attribute3" style="align=left;strokeColor=none;fillColor=none;spacingLeft=4;fontSize=12;verticalAlign=top;resizable=0;rotatable=0;part=1;html=1;" vertex="1" parent="kGxYXM4BxDVR542GWKJj-24">
          <mxGeometry y="50" width="160" height="70" as="geometry" />
        </mxCell>
        <mxCell id="kGxYXM4BxDVR542GWKJj-50" value="Não entendi" style="text;html=1;align=center;verticalAlign=middle;resizable=0;points=[];autosize=1;strokeColor=none;fillColor=none;fontFamily=Helvetica;fontSize=12;fontColor=default;" vertex="1" parent="1">
          <mxGeometry x="-75" y="60" width="90" height="30" as="geometry" />
        </mxCell>
        <mxCell id="kGxYXM4BxDVR542GWKJj-51" value="" style="group" vertex="1" connectable="0" parent="1">
          <mxGeometry x="120" y="270" width="880" height="150" as="geometry" />
        </mxCell>
        <mxCell id="kGxYXM4BxDVR542GWKJj-1" value="Pizza" style="swimlane;childLayout=stackLayout;horizontal=1;startSize=50;horizontalStack=0;rounded=1;fontSize=14;fontStyle=0;strokeWidth=2;resizeParent=0;resizeLast=1;shadow=0;dashed=0;align=center;arcSize=4;whiteSpace=wrap;html=1;" vertex="1" parent="kGxYXM4BxDVR542GWKJj-51">
          <mxGeometry width="160" height="150" as="geometry" />
        </mxCell>
        <mxCell id="kGxYXM4BxDVR542GWKJj-2" value="&lt;div&gt;String name&lt;/div&gt;&lt;div&gt;Double price&lt;/div&gt;List&amp;lt;Ingredient&amp;gt; ingredient&lt;div&gt;List&amp;lt;Double&amp;gt; EGI (&lt;span style=&quot;background-color: initial;&quot;&gt;Estimated&lt;/span&gt;&lt;span style=&quot;background-color: initial;&quot;&gt;&amp;nbsp;&lt;/span&gt;&lt;span style=&quot;background-color: initial;&quot;&gt;G&lt;/span&gt;&lt;span style=&quot;background-color: initial;&quot;&gt;rams for Ingredient&lt;/span&gt;&lt;span style=&quot;background-color: initial;&quot;&gt;)&lt;/span&gt;&lt;/div&gt;&lt;div&gt;Double&amp;nbsp;ETA (Estimated Time of Finishing)&lt;br&gt;&lt;/div&gt;&lt;div&gt;Text preparedMode&lt;/div&gt;" style="align=left;strokeColor=none;fillColor=none;spacingLeft=4;fontSize=12;verticalAlign=top;resizable=0;rotatable=0;part=1;html=1;" vertex="1" parent="kGxYXM4BxDVR542GWKJj-1">
          <mxGeometry y="50" width="160" height="100" as="geometry" />
        </mxCell>
        <mxCell id="kGxYXM4BxDVR542GWKJj-37" value="Deve utilizar outra tabela para relaciona os ingredientes usados com a quantidade de gramas utilizada por ingredient" style="text;html=1;align=left;verticalAlign=middle;resizable=0;points=[];autosize=1;strokeColor=none;fillColor=none;fontFamily=Helvetica;fontSize=12;fontColor=default;" vertex="1" parent="kGxYXM4BxDVR542GWKJj-51">
          <mxGeometry x="170" width="650" height="30" as="geometry" />
        </mxCell>
        <mxCell id="kGxYXM4BxDVR542GWKJj-38" value="A lista de ingredientes não é fixa pois, ao realizar o pedido o cliente pediu sem cebola, por tanto um ingrediente não foi utilizado&lt;span style=&quot;background-color: initial;&quot;&gt;&amp;nbsp;&lt;/span&gt;" style="text;html=1;align=left;verticalAlign=middle;resizable=0;points=[];autosize=1;strokeColor=none;fillColor=none;fontFamily=Helvetica;fontSize=12;fontColor=default;" vertex="1" parent="kGxYXM4BxDVR542GWKJj-51">
          <mxGeometry x="170" y="30" width="710" height="30" as="geometry" />
        </mxCell>
        <mxCell id="kGxYXM4BxDVR542GWKJj-39" value="O mesmo vale para a Gramas estimadas por ingrediente" style="text;html=1;align=left;verticalAlign=middle;resizable=0;points=[];autosize=1;strokeColor=none;fillColor=none;fontFamily=Helvetica;fontSize=12;fontColor=default;" vertex="1" parent="kGxYXM4BxDVR542GWKJj-51">
          <mxGeometry x="170" y="60" width="330" height="30" as="geometry" />
        </mxCell>
      </root>
    </mxGraphModel>
  </diagram>
</mxfile>
